# xmcd
#
# Track frame offsets:
#	150
#	13678
#	26480
#	41838
#	58401
#	71543
#
# Disc length: 1145 seconds
#
# Revision: 1
# Processed by: cddbd v1.5.2PL0 Copyright (c) Steve Scherf et al.
# Submitted via: audiograbber 1.83.01
#
DISCID=50047706
DTITLE=John P. Swisshelm - Collectors Country Dance Music
DYEAR=1999
DGENRE=Country
TTITLE0=Toe Tappin´ Country Man
TTITLE1=Three Reasons
TTITLE2=2nd Wind
TTITLE3=Don´t Throw Stones
TTITLE4=All I Need
TTITLE5=Two Faced
EXTD=
EXTT0=
EXTT1=
EXTT2=
EXTT3=
EXTT4=
EXTT5=
PLAYORDER=
